<svg width="39" height="34" fill="none" xmlns="http://www.w3.org/2000/svg"><path fill-rule="evenodd" clip-rule="evenodd" d="M19.938 14.945c-.73-.095-1.46-.353-2.19-.774-1.377-.795-2.25-1.882-2.62-3.26-.368-1.377-.112-2.83.77-4.359.485-.838 1.049-1.503 1.693-1.995l-5.774-3.333a1.937 1.937 0 00-2.646.709L1.035 16.025a1.937 1.937 0 00.71 2.646l4.743 2.739 13.45-6.465zm12.795-1.646l-13.148 6.32c.744.103 1.47.36 2.18.769.89.514 1.576 1.167 2.058 1.961.5.803.737 1.69.714 2.663-.024.971-.331 1.97-.923 2.994-.548.95-1.191 1.675-1.93 2.177l5.895 3.404a1.937 1.937 0 002.646-.71l8.136-14.091a1.937 1.937 0 00-.709-2.646l-4.92-2.84zM18.734 27.44c-.395.22-.753.238-1.072.054-.319-.185-.49-.508-.515-.97.002-.469.226-1.09.672-1.862.446-.773.867-1.27 1.263-1.489.422-.226.792-.248 1.111-.063.32.184.478.51.476.98.024.462-.186 1.08-.633 1.852-.446.772-.88 1.272-1.302 1.499zm.585-15.99c.32.185.677.168 1.073-.052.422-.227.856-.726 1.302-1.499.446-.773.657-1.39.632-1.852.002-.47-.156-.796-.475-.98-.32-.184-.69-.163-1.112.064-.396.22-.816.715-1.262 1.488-.447.773-.67 1.393-.673 1.862.025.463.196.786.516.97z" fill="#FFA800"/><path d="M10.746 23.868l2.575 1.487c.066-.89.373-1.81.92-2.76.12-.206.243-.4.371-.585l-3.866 1.858zm14.146-11.305l3.583-1.722-2.322-1.34c-.104.803-.397 1.624-.882 2.463a8.48 8.48 0 01-.379.6z" fill="#FFA800"/></svg>.4499C19.6387 11.6342 19.996 11.6165 20.3915 11.3969C20.8135 11.1703 21.2476 10.6706 21.6937 9.89797C22.1398 9.12532 22.3506 8.50799 22.3262 8.04598C22.3283 7.57688 22.1698 7.2502 21.8506 7.06594C21.5315 6.88169 21.1609 6.90289 20.7389 7.12956C20.3434 7.34912 19.9226 7.84523 19.4765 8.61788C19.0304 9.39054 18.8063 10.0114 18.8042 10.4805C18.8286 10.9425 19.0004 11.2657 19.3195 11.4499Z" fill="#FFA800"/>
<path d="M10.7458 23.8679L13.3215 25.355C13.3869 24.4641 13.6936 23.5441 14.2415 22.5951C14.3603 22.3894 14.4838 22.1942 14.6121 22.0095L10.7458 23.8679Z" fill="#FFA800"/>
<path d="M24.892 12.5631L28.4746 10.841L26.1532 9.50077C26.0495 10.304 25.7556 11.125 25.2714 11.9636C25.1497 12.1744 25.0232 12.3743 24.892 12.5631Z" fill="#FFA800"/>
</svg>
